<svg xmlns="http://www.w3.org/2000/svg" xmlns:xlink="http://www.w3.org/1999/xlink" width="44" height="32" viewBox="0 0 44 32">
  <defs>
    <polygon id="amex-a" points="8.351 8.496 41.992 8.496 41.992 15.39 8.351 15.39"/>
  </defs>
  <g fill="none" fill-rule="evenodd">
    <path stroke="#B9B9B0" d="M41,31.5 C42.3808576,31.5 43.5,30.3808576 43.5,29 L43.5,3 C43.5,1.61914237 42.3808576,0.5 41,0.5 L3,0.5 C1.61914237,0.5 0.5,1.61914237 0.5,3 L0.5,29 C0.5,30.3808576 1.61914237,31.5 3,31.5 L41,31.5 Z" opacity=".63"/>
    <g transform="translate(1 8)">
      <path fill="#016FD0" d="M0.00014893617,6.8868383 L2.01674468,6.8868383 L2.47144681,5.79007234 L3.48942553,5.79007234 L3.94293617,6.8868383 L7.91074468,6.8868383 L7.91074468,6.04832766 L8.26491489,6.89026383 L10.3247021,6.89026383 L10.6788723,6.03581702 L10.6788723,6.8868383 L20.5396383,6.8868383 L20.5350213,5.08649787 L20.7258085,5.08649787 C20.8594043,5.09111489 20.8984255,5.1034766 20.8984255,5.32405106 L20.8984255,6.8868383 L25.9985957,6.8868383 L25.9985957,6.46773191 C26.4098085,6.68815745 27.0496383,6.8868383 27.8915745,6.8868383 L30.0371489,6.8868383 L30.4963191,5.79007234 L31.5142979,5.79007234 L31.9633404,6.8868383 L36.0979574,6.8868383 L36.0979574,5.84488085 L36.7240851,6.8868383 L40.0373191,6.8868383 L40.0373191,2.97872341e-05 L36.7583404,2.97872341e-05 L36.7583404,0.813370213 L36.2991702,2.97872341e-05 L32.9345532,2.97872341e-05 L32.9345532,0.813370213 L32.5129149,2.97872341e-05 L27.9681277,2.97872341e-05 C27.2073617,2.97872341e-05 26.5386383,0.106221277 25.9985957,0.402008511 L25.9985957,2.97872341e-05 L22.8621489,2.97872341e-05 L22.8621489,0.402008511 C22.5184043,0.0971361702 22.05,2.97872341e-05 21.5291702,2.97872341e-05 L10.0710638,2.97872341e-05 L9.30225532,1.77877447 L8.51274468,2.97872341e-05 L4.9037234,2.97872341e-05 L4.9037234,0.813370213 L4.50725532,2.97872341e-05 L1.42934043,2.97872341e-05 L0,3.27439149 L0,6.8868383 L0.00014893617,6.8868383 Z M38.985234,5.91696596 L37.3126809,5.91696596 L35.0755106,2.2108383 L35.0755106,5.91696596 L32.6718298,5.91696596 L32.2125106,4.81558298 L29.7607234,4.81558298 L29.3151064,5.91696596 L27.9340213,5.91696596 C27.3603191,5.91696596 26.6339574,5.79007234 26.2225957,5.37081702 C25.8078085,4.95141277 25.592,4.38366809 25.592,3.48573191 C25.592,2.75341277 25.7209787,2.08379574 26.2284043,1.5549234 C26.6098298,1.1608383 27.2073617,0.978987234 28.0207021,0.978987234 L29.1634894,0.978987234 L29.1634894,2.03702979 L28.0446809,2.03702979 C27.6139574,2.03702979 27.3707447,2.10122128 27.1364681,2.32968936 C26.9352553,2.53760426 26.7971915,2.93064681 26.7971915,3.4482 C26.7971915,3.97707234 26.9023404,4.35864681 27.1218723,4.60781702 C27.3034255,4.80322128 27.633617,4.86249787 27.9442979,4.86249787 L28.4743617,4.86249787 L30.1379787,0.97913617 L31.9064468,0.97913617 L33.9047234,5.64977447 L33.9047234,0.97913617 L35.7016383,0.97913617 L37.7763191,4.41822128 L37.7763191,0.97913617 L38.985234,0.97913617 L38.985234,5.91696596 Z M23.8095319,5.91696596 L25.0138298,5.91696596 L25.0138298,0.97913617 L23.8095319,0.97913617 L23.8095319,5.91696596 Z M23.1250213,2.30898723 C23.1250213,3.09626383 22.5995745,3.50300851 22.2933617,3.62513617 C22.551617,3.72343404 22.7721915,3.89709362 22.8773404,4.04096596 C23.0438511,4.2865617 23.0725957,4.50594468 23.0725957,4.94694468 L23.0725957,5.91696596 L21.8821489,5.91696596 L21.8776809,5.29426383 C21.8776809,4.99713617 21.9061277,4.5698383 21.6913617,4.33228511 C21.5188936,4.15862553 21.2560213,4.12094468 20.8311064,4.12094468 L19.5641064,4.12094468 L19.5641064,5.91696596 L18.3839362,5.91696596 L18.3839362,0.978987234 L21.0985957,0.978987234 C21.7017872,0.978987234 22.1462128,0.99507234 22.5277872,1.21549787 C22.9011702,1.43622128 23.1250213,1.75807234 23.1250213,2.30898723 Z M17.5658298,5.91696596 L13.6230426,5.91696596 L13.6230426,0.978987234 L17.5658298,0.978987234 L17.5658298,2.00739149 L14.8035106,2.00739149 L14.8035106,2.89728511 L17.4995532,2.89728511 L17.4995532,3.90960426 L14.8035106,3.90960426 L14.8035106,4.8955617 L17.5658298,4.8955617 L17.5658298,5.91696596 Z M12.7435745,5.91696596 L11.5334681,5.91696596 L11.529,2.04954043 L9.81757447,5.91696596 L8.7812766,5.91696596 L7.06538298,2.04626383 L7.06538298,5.91696596 L4.66482979,5.91696596 L4.21131915,4.81558298 L1.75387234,4.81558298 L1.29574468,5.91696596 L0.0138510638,5.91696596 L2.12740426,0.978987234 L3.88097872,0.978987234 L5.88834043,5.65424255 L5.88834043,0.978987234 L7.81468085,0.978987234 L9.35929787,4.32885957 L10.7782128,0.978987234 L12.7434255,0.978987234 L12.7434255,5.91696596 L12.7435745,5.91696596 Z M31.810234,3.78628511 L30.9934681,1.81779574 L30.1813191,3.78628511 L31.810234,3.78628511 Z M21.5815957,3.00228511 C21.4194043,3.10088085 21.2275745,3.10415745 20.997766,3.10415745 L19.5639574,3.10415745 L19.5639574,2.00739149 L21.0172766,2.00739149 C21.2229574,2.00739149 21.4375745,2.01662553 21.5769787,2.09630638 C21.7300851,2.16839149 21.8248085,2.32149787 21.8248085,2.53298723 C21.8248085,2.74879574 21.7347021,2.92245532 21.5815957,3.00228511 Z M3.78521277,3.78628511 L2.97738298,1.81779574 L2.17417021,3.78628511 L3.78521277,3.78628511 Z"/>
      <mask id="amex-b" fill="#fff">
        <use xlink:href="#amex-a"/>
      </mask>
      <path fill="#016FD0" d="M22.877266,11.1050532 C22.877266,12.4772021 21.8536277,12.7603298 20.8217979,12.7603298 L19.349266,12.7603298 L19.349266,14.4169468 L17.0550532,14.4169468 L15.601734,12.7820745 L14.0915213,14.4169468 L9.41626596,14.4169468 L9.41626596,9.47792553 L14.1633085,9.47792553 L15.6154362,11.0968617 L17.1167128,9.47792553 L20.8882234,9.47792553 C21.824883,9.47792553 22.877266,9.7372234 22.877266,11.1050532 Z M13.4939894,13.3876489 L10.592117,13.3876489 L10.592117,12.405117 L13.1831596,12.405117 L13.1831596,11.3974149 L10.592117,11.3974149 L10.592117,10.4994787 L13.5511809,10.4994787 L14.8421596,11.9387979 L13.4939894,13.3876489 Z M18.1737128,13.9677553 L16.3616064,11.9559255 L18.1737128,10.0081383 L18.1737128,13.9677553 Z M20.8745213,11.7572447 L19.349266,11.7572447 L19.349266,10.4996277 L20.8882234,10.4996277 C21.3143298,10.4996277 21.6099681,10.6732872 21.6099681,11.1050532 C21.6099681,11.5323511 21.3280319,11.7572447 20.8745213,11.7572447 Z M28.8376915,9.47792553 L32.7769043,9.47792553 L32.7769043,10.4994787 L30.0129468,10.4994787 L30.0129468,11.3974149 L32.7094362,11.3974149 L32.7094362,12.405117 L30.0129468,12.405117 L30.0129468,13.3876489 L32.7769043,13.392117 L32.7769043,14.4169468 L28.8376915,14.4169468 L28.8376915,9.47792553 Z M27.3466915,12.1216915 C27.609266,12.2187979 27.8241809,12.3926064 27.9248617,12.5363298 C28.0915213,12.7774574 28.1156489,13.0025 28.120266,13.4379894 L28.120266,14.4169468 L26.9354787,14.4169468 L26.9354787,13.7990106 C26.9354787,13.5020319 26.9639255,13.0619255 26.7446915,12.8324149 C26.5722234,12.6553298 26.3093511,12.6130319 25.8786277,12.6130319 L24.6174362,12.6130319 L24.6174362,14.4169468 L23.4314574,14.4169468 L23.4314574,9.47792553 L26.1563936,9.47792553 C26.7537766,9.47792553 27.1889681,9.50428723 27.5765,9.71115957 C27.9489894,9.93605319 28.183266,10.2443511 28.183266,10.8077766 C28.183117,11.5960957 27.6573723,11.9983723 27.3466915,12.1216915 Z M26.633883,11.5070319 C26.4758617,11.6007128 26.2807553,11.6089043 26.0510957,11.6089043 L24.6172872,11.6089043 L24.6172872,10.4996277 L26.0704574,10.4996277 C26.2807553,10.4996277 26.4910532,10.5040957 26.633883,10.5886915 C26.7868404,10.6686702 26.8781383,10.8217766 26.8781383,11.0329681 C26.8781383,11.2444574 26.7868404,11.4145426 26.633883,11.5070319 Z M37.2838617,11.8122021 C37.5136702,12.0499043 37.6369894,12.3501596 37.6369894,12.8584787 C37.6369894,13.9209894 36.9731809,14.4169468 35.782734,14.4169468 L33.4840532,14.4169468 L33.4840532,13.3580106 L35.7736489,13.3580106 C35.9975,13.3580106 36.156117,13.3283723 36.2556064,13.2355851 C36.3367766,13.1593298 36.3951596,13.0482234 36.3951596,12.9135851 C36.3951596,12.7695638 36.3321596,12.6553298 36.2511383,12.5868191 C36.160734,12.5114574 36.0363723,12.4772021 35.8308404,12.4772021 C34.7270745,12.4396702 33.3446489,12.5114574 33.3446489,10.9485213 C33.3446489,10.2321383 33.794883,9.47807447 35.0320957,9.47807447 L37.3983936,9.47807447 L37.3983936,10.5294149 L35.2333085,10.5294149 C35.0186915,10.5294149 34.8791383,10.5373085 34.7602872,10.6184787 C34.6311596,10.6986064 34.5832021,10.8171596 34.5832021,10.9738404 C34.5832021,11.1603085 34.6929681,11.2869043 34.8414574,11.3418617 C34.9659681,11.3852021 35.0995638,11.3977128 35.3007766,11.3977128 L35.9361383,11.4148404 C36.5767128,11.4306277 37.0166702,11.5414362 37.2838617,11.8122021 Z M41.9920319,13.7853085 C41.7053298,14.2045638 41.1466702,14.4169468 40.3903723,14.4169468 L38.1109043,14.4169468 L38.1109043,13.3580106 L40.3809894,13.3580106 C40.6061809,13.3580106 40.7639043,13.3283723 40.8586277,13.2355851 C40.9408404,13.1593298 40.9983298,13.0482234 40.9983298,12.9135851 C40.9983298,12.7695638 40.9408404,12.6554787 40.8540106,12.5868191 C40.7685213,12.5114574 40.6438617,12.4772021 40.4381809,12.4772021 C39.3300957,12.4396702 37.9475213,12.5114574 37.9475213,10.9485213 C37.9475213,10.2321383 38.4022234,9.47807447 39.6409255,9.47807447 L41.991883,9.47807447 L41.9920319,8.49554255 L39.8075851,8.49554255 C39.1483936,8.49554255 38.6694149,8.65341489 38.3304362,8.8988617 L38.3304362,8.49554255 L35.0994149,8.49554255 C34.5829043,8.49554255 33.9762872,8.62347872 33.6895851,8.8988617 L33.6895851,8.49554255 L27.9199468,8.49554255 L27.9199468,8.8988617 C27.4607766,8.56762766 26.6860106,8.49554255 26.3285638,8.49554255 L22.5229468,8.49554255 L22.5229468,8.8988617 C22.1596915,8.54692553 21.3518617,8.49554255 20.8593298,8.49554255 L16.6002021,8.49554255 L15.6257128,9.55030851 L14.712883,8.49554255 L8.35062766,8.49554255 L8.35062766,15.3869681 L14.5931383,15.3869681 L15.597266,14.3156702 L16.5434574,15.3869681 L20.3913723,15.3903936 L20.3913723,13.7693723 L20.7696702,13.7693723 C21.2800745,13.777117 21.8822234,13.7565638 22.4136277,13.5270532 L22.4136277,15.3869681 L25.5873085,15.3869681 L25.5873085,13.5906489 L25.7405638,13.5906489 C25.9358191,13.5906489 25.9551809,13.5988404 25.9551809,13.7940957 L25.9551809,15.3866702 L35.5965638,15.3866702 C36.2088404,15.3866702 36.8486702,15.2299894 37.2029894,14.9456702 L37.2029894,15.3866702 L40.2612447,15.3866702 C40.8975,15.3866702 41.5191596,15.2974574 41.9920319,15.0689894 L41.9920319,13.7853085 Z M41.9920319,10.529117 L39.8407979,10.529117 C39.6261809,10.529117 39.4835,10.5371596 39.3631596,10.6181809 C39.2386489,10.6983085 39.1906915,10.8168617 39.1906915,10.9735426 C39.1906915,11.1600106 39.2958404,11.2866064 39.4489468,11.3415638 C39.5734574,11.3849043 39.7072021,11.3974149 39.9036489,11.3974149 L40.5433298,11.4145426 C41.1888191,11.4306277 41.6198404,11.5414362 41.8824149,11.8122021 C41.9303723,11.849734 41.9589681,11.8921809 41.9920319,11.9343298 L41.9920319,10.529117 Z" mask="url(#amex-b)"/>
    </g>
  </g>
</svg>
