<svg xmlns="http://www.w3.org/2000/svg" width="44" height="32" viewBox="0 0 44 32">
  <g fill="none" fill-rule="evenodd">
    <path stroke="#B9B9B0" d="M41,31.5 C42.3808576,31.5 43.5,30.3808576 43.5,29 L43.5,3 C43.5,1.61914237 42.3808576,0.5 41,0.5 L3,0.5 C1.61914237,0.5 0.5,1.61914237 0.5,3 L0.5,29 C0.5,30.3808576 1.61914237,31.5 3,31.5 L41,31.5 Z" opacity=".63"/>
    <path fill="#1A1919" d="M12.540703 10.7412756C12.894679 10.2725734 13.1346969 9.64309689 13.0714149 9 12.5535611 9.02724082 11.9214971 9.36187554 11.5556715 9.83111193 11.2271596 10.2327804 10.9364656 10.8884295 11.0121015 11.5045526 11.5934894 11.557966 12.1743731 11.1968916 12.540703 10.7412756M13.1889581 12.0034579C12.3467498 11.9519614 11.6305709 12.4926751 11.2283334 12.4926751 10.8258443 12.4926751 10.2097846 12.0292062 9.54341363 12.0418229 8.67630131 12.054697 7.87182634 12.5565308 7.43160395 13.3547272 6.52650673 14.9516351 7.19287764 17.3202186 8.07307086 18.6205063 8.50046391 19.2639557 9.01564988 19.9722906 9.69434702 19.9470573 10.3355624 19.921309 10.587118 19.5219533 11.3664374 19.5219533 12.1455053 19.5219533 12.3719054 19.9470573 13.0508541 19.9341832 13.7547068 19.921309 14.1949292 19.2904764 14.6223222 18.6462546 15.1126042 17.9129438 15.3133456 17.2048664 15.3261749 17.1659865 15.3133456 17.1528548 13.9685291 16.6250153 13.9562028 15.0414965 13.9433735 13.7154605 15.0119819 13.0848854 15.062293 13.045748 14.458811 12.1321993 13.5159805 12.0292062 13.1889581 12.0034579M19.4684385 15.0804197L21.1532838 15.0804197C22.4317988 15.0804197 23.1594603 14.3804417 23.1594603 13.1669583 23.1594603 11.9537314 22.4317988 11.2601657 21.1598415 11.2601657L19.4684385 11.2601657 19.4684385 15.0804197zM21.5467506 10C23.3824249 10 24.6609399 11.2868413 24.6609399 13.1602894 24.6609399 15.0404063 23.3561937 16.3339165 21.5008462 16.3339165L19.4684385 16.3339165 19.4684385 19.620915 18 19.620915 18 10 21.5467506 10zM29.4281121 17.4355677L29.4281121 16.897598 27.806684 17.0038636C26.8950065 17.063638 26.4197517 17.4087458 26.4197517 18.0131315 26.4197517 18.597337 26.9145478 18.9759082 27.6894361 18.9759082 28.6792789 18.9759082 29.4281121 18.3316729 29.4281121 17.4355677zM25 18.0529811C25 16.8245404 25.9181913 16.1207861 27.6112708 16.0145205L29.4281121 15.9016133 29.4281121 15.3705407C29.4281121 14.5934733 28.9268022 14.1686663 28.034666 14.1686663 27.2986098 14.1686663 26.7647311 14.5536237 26.6539969 15.1447262L25.3384656 15.1447262C25.3777988 13.9030023 26.5237215 13 28.0737486 13 29.7407731 13 30.8283224 13.8897191 30.8283224 15.2709167L30.8283224 20.0383089 29.4802222 20.0383089 29.4802222 18.8895674 29.4476534 18.8895674C29.0635914 19.6398129 28.2168011 20.1111111 27.2986098 20.1111111 25.9442464 20.1111111 25 19.2880635 25 18.0529811zM31.6963804 22.5805332L31.6963804 21.42412C31.7901239 21.4372377 32.0175291 21.4506126 32.1380565 21.4506126 32.8006995 21.4506126 33.1756735 21.1699972 33.4033364 20.4477534L33.5372557 20.0200143 31 13 32.5663407 13 34.3338179 18.6961578 34.3672978 18.6961578 36.1345175 13 37.6609399 13 35.0299408 20.3744487C34.4275615 22.0658573 33.7378771 22.620915 32.2786718 22.620915 32.1648404 22.620915 31.7965623 22.6075401 31.6963804 22.5805332"/>
  </g>
</svg>
