<svg xmlns="http://www.w3.org/2000/svg" width="44" height="32" viewBox="0 0 44 32">
  <g fill="none" fill-rule="evenodd">
    <path stroke="#B9B9B0" d="M41,31.5 C42.3808576,31.5 43.5,30.3808576 43.5,29 L43.5,3 C43.5,1.61914237 42.3808576,0.5 41,0.5 L3,0.5 C1.61914237,0.5 0.5,1.61914237 0.5,3 L0.5,29 C0.5,30.3808576 1.61914237,31.5 3,31.5 L41,31.5 Z" opacity=".63"/>
    <path fill="#7B7B72" fill-rule="nonzero" d="M28.2692308,16.5736434 L24.4230769,16.5736434 L24.4230769,7 L28.2692308,7 L29.2307692,7 L29.2307692,16.5736434 L28.2692308,16.5736434 Z M10,7 L10.9615385,7 L10.9615385,18.0852713 L10,18.0852713 L10,7 Z M34.0384615,7 L35,7 L35,18.0852713 L34.0384615,18.0852713 L34.0384615,7 Z M12.8846154,7 L13.8461538,7 L13.8461538,16.5736434 L12.8846154,16.5736434 L12.8846154,7 Z M31.1538462,7 L32.1153846,7 L32.1153846,16.5736434 L31.1538462,16.5736434 L31.1538462,7 Z M15.7692308,7 L19.6153846,7 L19.6153846,16.5736434 L15.7692308,16.5736434 L15.7692308,7 Z M20.5769231,7 L21.5384615,7 L21.5384615,16.5736434 L20.5769231,16.5736434 L20.5769231,7 Z"/>
    <path fill="#7B7B72" d="M12.5016088,19.3378378 C13.7001287,19.3378378 14.4401544,19.8767696 14.4401544,20.7454955 C14.4401544,21.3648649 14.0701416,21.8394466 13.458816,21.992278 C14.1988417,22.1290219 14.6573359,22.6679537 14.6573359,23.4160232 C14.6573359,24.3812741 13.8610039,24.9684685 12.5740026,24.9684685 L10,24.9684685 L10,19.3378378 L12.5016088,19.3378378 Z M12.4453024,21.6383526 C13.0003218,21.6383526 13.3381596,21.3809524 13.3381596,20.9385457 C13.3381596,20.5122265 13.0003218,20.2709138 12.4453024,20.2709138 L11.0778636,20.2709138 L11.0778636,21.6383526 L12.4453024,21.6383526 Z M12.4453024,24.0353925 C13.1290219,24.0353925 13.5392535,23.7619048 13.5392535,23.2792793 C13.5392535,22.8207851 13.1290219,22.5392535 12.4453024,22.5392535 L11.0778636,22.5392535 L11.0778636,24.0353925 L12.4453024,24.0353925 Z M17.4565637,20.6328829 C18.8079151,20.6328829 19.7329472,21.5096525 19.7329472,22.8127413 C19.7329472,24.1238739 18.8079151,25.0086873 17.4565637,25.0086873 C16.1132561,25.0086873 15.1882239,24.1238739 15.1882239,22.8127413 C15.1882239,21.5096525 16.1132561,20.6328829 17.4565637,20.6328829 Z M17.4565637,21.5337838 C16.748713,21.5337838 16.25,22.0566281 16.25,22.8288288 C16.25,23.6010296 16.748713,24.1319176 17.4565637,24.1319176 C18.1724582,24.1319176 18.6711712,23.6010296 18.6711712,22.8288288 C18.6711712,22.0566281 18.1724582,21.5337838 17.4565637,21.5337838 Z M20.6016731,19 L21.6473616,19 L21.6473616,24.9684685 L20.6016731,24.9684685 L20.6016731,19 Z M24.7039897,20.6328829 C26.2162162,20.6328829 26.8677606,21.6222651 26.7631918,23.1827542 L23.5859073,23.1827542 C23.7226512,23.7940798 24.1891892,24.1640927 24.8166023,24.1640927 C25.259009,24.1640927 25.6692407,23.9951737 25.9749035,23.6814672 L26.5379665,24.2686615 C26.1116474,24.7351995 25.4842342,25.0086873 24.728121,25.0086873 C23.3928571,25.0086873 22.5160875,24.1238739 22.5160875,22.8288288 C22.5160875,21.5176963 23.4169884,20.6328829 24.7039897,20.6328829 Z M23.5617761,22.4829472 L25.8140283,22.4829472 C25.789897,21.8474903 25.3635779,21.4453024 24.7120335,21.4453024 C24.0926641,21.4453024 23.6583012,21.8474903 23.5617761,22.4829472 Z M29.8680824,23.9147362 L30.1093951,24.7030245 C29.779601,24.9041184 29.4095882,25.016731 29.0315315,25.016731 C28.3317246,25.016731 27.7686615,24.6145431 27.7686615,23.7297297 L27.7686615,21.6061776 L27.1653797,21.6061776 L27.1573359,20.8420206 L27.7686615,20.8420206 L27.7686615,19.6595882 L28.8063063,19.6595882 L28.8063063,20.8420206 L30.0370013,20.8420206 L30.0370013,21.6061776 L28.8063063,21.6061776 L28.8063063,23.5447233 C28.8063063,23.954955 28.9752252,24.0916988 29.2567568,24.0916988 C29.4337194,24.0916988 29.6348134,24.0273488 29.8680824,23.9147362 Z M32.7236165,20.6328829 C34.0749678,20.6328829 35,21.5096525 35,22.8127413 C35,24.1238739 34.0749678,25.0086873 32.7236165,25.0086873 C31.3803089,25.0086873 30.4552767,24.1238739 30.4552767,22.8127413 C30.4552767,21.5096525 31.3803089,20.6328829 32.7236165,20.6328829 Z M32.7236165,21.5337838 C32.0157658,21.5337838 31.5170528,22.0566281 31.5170528,22.8288288 C31.5170528,23.6010296 32.0157658,24.1319176 32.7236165,24.1319176 C33.4395109,24.1319176 33.9382239,23.6010296 33.9382239,22.8288288 C33.9382239,22.0566281 33.4395109,21.5337838 32.7236165,21.5337838 Z"/>
  </g>
</svg>
