<svg xmlns="http://www.w3.org/2000/svg" width="44" height="32" viewBox="0 0 44 32">
  <g fill="none" fill-rule="evenodd">
    <path stroke="#B9B9B0" d="M41,31.5 C42.3808576,31.5 43.5,30.3808576 43.5,29 L43.5,3 C43.5,1.61914237 42.3808576,0.5 41,0.5 L3,0.5 C1.61914237,0.5 0.5,1.61914237 0.5,3 L0.5,29 C0.5,30.3808576 1.61914237,31.5 3,31.5 L41,31.5 Z" opacity=".63"/>
    <path fill="#2060C0" fill-rule="nonzero" d="M19 12L19 20C20.721 19.5365474 22 17.9263867 22 16 22 14.0736133 20.721 12.4634526 19 12zM17 12C15.279 12.4634526 14 14.0736133 14 16 14 17.9263867 15.279 19.5365474 17 20L17 12z"/>
    <path fill="#2060C0" fill-rule="nonzero" d="M26,8 L18,8 C13.582,8 10,11.582 10,16 C10,20.418 13.582,24 18,24 L26,24 C30.418,24 34,20.418 34,16 C34,11.582 30.418,8 26,8 Z M18,22 C14.691,22 12,19.309 12,16 C12,12.691 14.691,10 18,10 C21.309,10 24,12.691 24,16 C24,19.309 21.309,22 18,22 Z"/>
  </g>
</svg>
