<svg xmlns="http://www.w3.org/2000/svg" xmlns:xlink="http://www.w3.org/1999/xlink" width="44" height="32" viewBox="0 0 44 32">
  <defs>
    <rect id="discover-a" width="44" height="32" rx="3"/>
    <rect id="discover-c" width="44" height="32" rx="3"/>
    <radialGradient id="discover-d" cx="49.993%" cy="50.133%" r="49.915%" fx="49.993%" fy="50.133%" gradientTransform="matrix(.99074 0 0 1 .005 0)">
      <stop offset=".562%" stop-color="#FFEFE1"/>
      <stop offset="9.682%" stop-color="#FFEAD8"/>
      <stop offset="24.56%" stop-color="#FEDEC1"/>
      <stop offset="43.37%" stop-color="#FDCA9E"/>
      <stop offset="65.34%" stop-color="#FAAF72"/>
      <stop offset="89.71%" stop-color="#F79038"/>
      <stop offset="100%" stop-color="#F58220"/>
    </radialGradient>
  </defs>
  <g fill="none" fill-rule="evenodd">
    <mask id="discover-b" fill="#fff">
      <use xlink:href="#discover-a"/>
    </mask>
    <rect width="43" height="31" x=".5" y=".5" stroke="#D3D3D3" rx="3"/>
    <path fill="#F58220" fill-rule="nonzero" d="M43.9513369,20 C43.9513369,20 32.3160428,28.33 11,32.0633333 L43.9513369,32.0633333 L43.9513369,20 Z" mask="url(#discover-b)"/>
    <mask id="discover-e" fill="#fff">
      <use xlink:href="#discover-c"/>
    </mask>
    <rect width="43" height="31" x=".5" y=".5" stroke="#D3D3D3" rx="3"/>
    <path fill="url(#discover-d)" fill-rule="nonzero" d="M22.7230615,11.1866667 C20.9754679,11.1866667 19.5612968,12.575 19.5612968,14.2783333 C19.5612968,16.0983333 20.9179813,17.4516667 22.7230615,17.4516667 C24.4821524,17.4516667 25.8848262,16.075 25.8848262,14.3133333 C25.8848262,12.5633333 24.5051471,11.1866667 22.7230615,11.1866667 Z" mask="url(#discover-e)"/>
    <path fill="#000" fill-rule="nonzero" d="M4.75274064,11.3033333 L3.05113636,11.3033333 L3.05113636,17.3233333 L4.74124332,17.3233333 C5.63803476,17.3233333 6.29338235,17.1016667 6.85675134,16.6233333 C7.53509358,16.0516667 7.9375,15.2 7.9375,14.3133333 C7.9375,12.54 6.62680481,11.3033333 4.75274064,11.3033333 Z M6.09792781,15.83 C5.73001337,16.1683333 5.25862299,16.3083333 4.51129679,16.3083333 L4.20086898,16.3083333 L4.20086898,12.3183333 L4.51129679,12.3183333 C5.25862299,12.3183333 5.71851604,12.4583333 6.09792781,12.8083333 C6.50033422,13.17 6.74177807,13.73 6.74177807,14.3016667 C6.74177807,14.885 6.50033422,15.4683333 6.09792781,15.83 Z" mask="url(#discover-e)"/>
    <rect width="1.161" height="6.02" x="8.466" y="11.303" fill="#000" fill-rule="nonzero" mask="url(#discover-e)"/>
    <path fill="#000" fill-rule="nonzero" d="M12.4559492 13.6133333C11.7661096 13.3566667 11.5591578 13.1816667 11.5591578 12.855 11.5591578 12.47 11.9270722 12.19 12.4214572 12.19 12.766377 12.19 13.0538102 12.33 13.3527406 12.68L13.9620989 11.875C13.4677139 11.4316667 12.8698529 11.21 12.2145053 11.21 11.1682487 11.21 10.3634358 11.9566667 10.3634358 12.9366667 10.3634358 13.765 10.7313503 14.1966667 11.8235963 14.5933333 12.2834893 14.7566667 12.5134358 14.8616667 12.6284091 14.9316667 12.8583556 15.0833333 12.9733289 15.305 12.9733289 15.55 12.9733289 16.04 12.5939171 16.4016667 12.0765374 16.4016667 11.5246658 16.4016667 11.0762701 16.1216667 10.8118316 15.5966667L10.0645053 16.3316667C10.5933824 17.125 11.2372326 17.475 12.1225267 17.475 13.329746 17.475 14.1690508 16.6583333 14.1690508 15.4916667 14.1690508 14.535 13.7781417 14.1033333 12.4559492 13.6133333zM14.5369652 14.3133333C14.5369652 16.0866667 15.9051471 17.4633333 17.6757353 17.4633333 18.1701203 17.4633333 18.6070187 17.3583333 19.1243984 17.1133333L19.1243984 15.725C18.6645053 16.1916667 18.2506016 16.39 17.7217246 16.39 16.5604947 16.39 15.7211898 15.5266667 15.7211898 14.3133333 15.7211898 13.1583333 16.571992 12.2483333 17.664238 12.2483333 18.2161096 12.2483333 18.6300134 12.4466667 19.1129011 12.925L19.1129011 11.5366667C18.6070187 11.28 18.1816176 11.1633333 17.6872326 11.1633333 15.939639 11.1633333 14.5369652 12.5633333 14.5369652 14.3133333z" mask="url(#discover-e)"/>
    <polygon fill="#000" fill-rule="nonzero" points="28.506 15.352 26.92 11.303 25.655 11.303 28.173 17.487 28.805 17.487 31.369 11.303 30.104 11.303" mask="url(#discover-e)"/>
    <polygon fill="#000" fill-rule="nonzero" points="31.886 17.323 35.175 17.323 35.175 16.308 33.048 16.308 33.048 14.687 35.094 14.687 35.094 13.66 33.048 13.66 33.048 12.318 35.175 12.318 35.175 11.303 31.886 11.303" mask="url(#discover-e)"/>
    <path fill="#000" fill-rule="nonzero" d="M39.7620989 13.0766667C39.7620989 11.945 38.9917781 11.3033333 37.6580882 11.3033333L35.9449866 11.3033333 35.9449866 17.3233333 37.1062166 17.3233333 37.1062166 14.8966667 37.2556818 14.8966667 38.8538102 17.3233333 40.2794786 17.3233333 38.4054144 14.78C39.2792112 14.605 39.7620989 13.9983333 39.7620989 13.0766667zM37.439639 14.08L37.1062166 14.08 37.1062166 12.26 37.4626337 12.26C38.1869652 12.26 38.5778743 12.5633333 38.5778743 13.1583333 38.566377 13.7533333 38.1754679 14.08 37.439639 14.08zM40.5784091 11.7466667C40.5784091 11.6416667 40.5094251 11.5833333 40.3829545 11.5833333L40.2104947 11.5833333 40.2104947 12.1083333 40.3369652 12.1083333 40.3369652 11.8983333 40.4864305 12.1083333 40.6358957 12.1083333 40.4634358 11.8866667C40.5324198 11.8866667 40.5784091 11.8283333 40.5784091 11.7466667zM40.3599599 11.8283333L40.3369652 11.8283333 40.3369652 11.6883333 40.3599599 11.6883333C40.4174465 11.6883333 40.4519385 11.7116667 40.4519385 11.7583333 40.4519385 11.805 40.4174465 11.8283333 40.3599599 11.8283333z" mask="url(#discover-e)"/>
    <path fill="#000" fill-rule="nonzero" d="M40.4059492,11.385 C40.153008,11.385 39.9460561,11.595 39.9460561,11.8516667 C39.9460561,12.1083333 40.153008,12.3183333 40.4059492,12.3183333 C40.6588904,12.3183333 40.8543449,12.1083333 40.8543449,11.8516667 C40.8543449,11.595 40.6588904,11.385 40.4059492,11.385 Z M40.4059492,12.2366667 C40.1989973,12.2366667 40.0380348,12.0616667 40.0380348,11.8516667 C40.0380348,11.6416667 40.1989973,11.4666667 40.4059492,11.4666667 C40.6014037,11.4666667 40.7623663,11.6416667 40.7623663,11.8516667 C40.7623663,12.0616667 40.6014037,12.2366667 40.4059492,12.2366667 Z" mask="url(#discover-e)"/>
    <polygon fill="#000" fill-rule="nonzero" points="13.422 18.91 14.974 20.555 14.974 18.992 15.192 18.992 15.192 21.103 13.652 19.458 13.652 21.01 13.422 21.01" mask="url(#discover-e)"/>
    <path fill="#000" fill-rule="nonzero" d="M13.4102273,18.91 L13.4102273,21.0333333 L13.6746658,21.0333333 C13.6746658,21.0333333 13.6746658,19.61 13.6746658,19.5166667 C13.7436497,19.5866667 15.2268048,21.1616667 15.2268048,21.1616667 L15.2268048,18.98 L14.9623663,18.98 C14.9623663,18.98 14.9623663,20.415 14.9623663,20.5083333 C14.8933824,20.4383333 13.4102273,18.8633333 13.4102273,18.8633333 L13.4102273,18.91 Z M13.4447193,18.9683333 C13.5137032,19.0383333 14.9968583,20.6133333 14.9968583,20.6133333 C14.9968583,20.6133333 14.9968583,19.0616667 14.9968583,19.015 C15.0313503,19.015 15.1463235,19.015 15.1808155,19.015 C15.1808155,19.05 15.1808155,20.9516667 15.1808155,21.045 C15.1118316,20.975 13.6286765,19.4 13.6286765,19.4 C13.6286765,19.4 13.6286765,20.94 13.6286765,20.9866667 C13.5941845,20.9866667 13.4792112,20.9866667 13.4447193,20.9866667 C13.4447193,20.9516667 13.4447193,19.0616667 13.4447193,18.9683333 Z" mask="url(#discover-e)"/>
    <polygon fill="#000" fill-rule="nonzero" points="16.273 19.003 17.308 19.003 17.308 19.213 16.503 19.213 16.503 19.808 17.285 19.808 17.285 20.018 16.503 20.018 16.503 20.812 17.308 20.812 17.308 21.022 16.273 21.022" mask="url(#discover-e)"/>
    <path fill="#000" fill-rule="nonzero" d="M17.2963235,18.98 L16.2500668,18.98 L16.2500668,21.0333333 L17.3193182,21.0333333 L17.3193182,20.7766667 C17.3193182,20.7766667 16.5489973,20.7766667 16.5145053,20.7766667 C16.5145053,20.7416667 16.5145053,20.065 16.5145053,20.03 C16.5489973,20.03 17.2963235,20.03 17.2963235,20.03 L17.2963235,19.785 C17.2963235,19.785 16.5489973,19.785 16.5145053,19.785 C16.5145053,19.75 16.5145053,19.26 16.5145053,19.225 C16.5489973,19.225 17.3193182,19.225 17.3193182,19.225 L17.3193182,18.9683333 L17.2963235,18.9683333 L17.2963235,18.98 Z M17.2848262,19.015 C17.2848262,19.05 17.2848262,19.155 17.2848262,19.1783333 C17.2503342,19.1783333 16.4800134,19.1783333 16.4800134,19.1783333 L16.4800134,19.82 C16.4800134,19.82 17.2273396,19.82 17.2618316,19.82 C17.2618316,19.855 17.2618316,19.96 17.2618316,19.9833333 C17.2273396,19.9833333 16.4800134,19.9833333 16.4800134,19.9833333 L16.4800134,20.8116667 C16.4800134,20.8116667 17.2503342,20.8116667 17.2848262,20.8116667 C17.2848262,20.8466667 17.2848262,20.9516667 17.2848262,20.975 C17.2503342,20.975 16.3305481,20.975 16.2960561,20.975 C16.2960561,20.94 16.2960561,19.0383333 16.2960561,19.0033333 C16.3305481,19.015 17.2388369,19.015 17.2848262,19.015 Z" mask="url(#discover-e)"/>
    <polygon fill="#000" fill-rule="nonzero" points="18.642 21.01 18.642 19.202 18.159 19.202 18.159 18.992 19.343 18.992 19.343 19.202 18.86 19.202 18.86 21.01" mask="url(#discover-e)"/>
    <path fill="#000" fill-rule="nonzero" d="M19.3543449,18.98 L18.1356283,18.98 L18.1356283,19.2366667 C18.1356283,19.2366667 18.5725267,19.2366667 18.618516,19.2366667 C18.618516,19.2716667 18.618516,21.045 18.618516,21.045 L18.8829545,21.045 C18.8829545,21.045 18.8829545,19.2833333 18.8829545,19.2366667 C18.9174465,19.2366667 19.3658422,19.2366667 19.3658422,19.2366667 L19.3658422,18.98 L19.3543449,18.98 Z M19.3313503,19.015 C19.3313503,19.05 19.3313503,19.155 19.3313503,19.1783333 C19.2968583,19.1783333 18.8484626,19.1783333 18.8484626,19.1783333 C18.8484626,19.1783333 18.8484626,20.94 18.8484626,20.9866667 C18.8139706,20.9866667 18.6989973,20.9866667 18.6645053,20.9866667 C18.6645053,20.9516667 18.6645053,19.1783333 18.6645053,19.1783333 C18.6645053,19.1783333 18.227607,19.1783333 18.1816176,19.1783333 C18.1816176,19.1433333 18.1816176,19.0383333 18.1816176,19.015 C18.227607,19.015 19.285361,19.015 19.3313503,19.015 Z" mask="url(#discover-e)"/>
    <polygon fill="#000" fill-rule="nonzero" points="20.826 20.508 21.47 18.887 22.114 20.508 22.631 19.003 22.873 19.003 22.114 21.127 21.47 19.505 20.826 21.127 20.067 19.003 20.309 19.003" mask="url(#discover-e)"/>
    <path fill="#000" fill-rule="nonzero" d="M21.4583556 18.8866667C21.4583556 18.8866667 20.871992 20.3566667 20.8375 20.45 20.803008 20.3566667 20.3316176 18.98 20.3316176 18.98L20.0441845 18.98 20.8375 21.185C20.8375 21.185 21.4468583 19.645 21.4813503 19.5633333 21.5158422 19.6566667 22.1252005 21.185 22.1252005 21.185L22.918516 18.98 22.6195856 18.98C22.6195856 18.98 22.1481952 20.3566667 22.1137032 20.45 22.0792112 20.3566667 21.4698529 18.84 21.4698529 18.84L21.4583556 18.8866667zM20.8489973 20.52C20.8489973 20.52 21.435361 19.0383333 21.4698529 18.9566667 21.5043449 19.05 22.1137032 20.5783333 22.1137032 20.5783333 22.1137032 20.5783333 22.6425802 19.0616667 22.6540775 19.0266667 22.6770722 19.0266667 22.8035428 19.0266667 22.8495321 19.0266667 22.8265374 19.085 22.1481952 20.975 22.1137032 21.0683333 22.0792112 20.975 21.4698529 19.4466667 21.4698529 19.4466667 21.4698529 19.4466667 20.8604947 20.975 20.8260027 21.0683333 20.7915107 20.975 20.1131684 19.085 20.0901738 19.0266667 20.1361631 19.0266667 20.2626337 19.0266667 20.2856283 19.0266667 20.2971257 19.05 20.8260027 20.5783333 20.8260027 20.5783333L20.8489973 20.52zM25.735361 20.0066667C25.735361 20.59 25.2639706 21.045 24.7006016 21.045 24.1372326 21.045 23.6658422 20.59 23.6658422 20.0066667 23.6658422 19.435 24.1372326 18.9566667 24.7006016 18.9566667 25.2639706 18.9683333 25.735361 19.435 25.735361 20.0066667zM23.8842914 20.0066667C23.8842914 20.4616667 24.2522059 20.835 24.7006016 20.835 25.1489973 20.835 25.5169118 20.45 25.5169118 20.0066667 25.5169118 19.5516667 25.1604947 19.1666667 24.7006016 19.1666667 24.2522059 19.1666667 23.8842914 19.5516667 23.8842914 20.0066667z" mask="url(#discover-e)"/>
    <path fill="#000" fill-rule="nonzero" d="M23.6428476,20.0066667 C23.6428476,20.59 24.114238,21.0683333 24.7006016,21.0683333 C25.2869652,21.0683333 25.7583556,20.59 25.7583556,20.0066667 C25.7583556,19.4233333 25.2869652,18.945 24.7006016,18.945 C24.1257353,18.945 23.6428476,19.4233333 23.6428476,20.0066667 Z M23.6888369,20.0066667 C23.6888369,19.4466667 24.1487299,18.98 24.7006016,18.98 C25.2639706,18.98 25.7123663,19.435 25.7123663,20.0066667 C25.7123663,20.5666667 25.2524733,21.0216667 24.7006016,21.0216667 C24.1372326,21.0333333 23.6888369,20.5666667 23.6888369,20.0066667 Z" mask="url(#discover-e)"/>
    <path fill="#000" fill-rule="nonzero" d="M23.8727941 20.0066667C23.8727941 20.485 24.2522059 20.8583333 24.7120989 20.8583333 25.171992 20.8583333 25.5514037 20.4733333 25.5514037 20.0066667 25.5514037 19.54 25.1834893 19.155 24.7120989 19.155 24.2407086 19.155 23.8727941 19.54 23.8727941 20.0066667zM23.9072861 20.0066667C23.9072861 19.5633333 24.2637032 19.19 24.7006016 19.19 25.1375 19.19 25.4939171 19.5516667 25.4939171 20.0066667 25.4939171 20.45 25.1375 20.8233333 24.7006016 20.8233333 24.2637032 20.8233333 23.9072861 20.45 23.9072861 20.0066667zM26.7011364 21.01L26.7011364 18.9916667 26.9885695 18.9916667C27.3679813 18.9916667 27.7129011 19.0966667 27.7129011 19.5516667 27.7129011 19.8666667 27.5174465 20.0766667 27.218516 20.1116667L27.850869 21.01 27.5749332 21.01 26.9770722 20.1233333 26.9195856 20.1233333 26.9195856 21.01 26.7011364 21.01zM26.9195856 19.9366667L26.9885695 19.9366667C27.2415107 19.9366667 27.4944519 19.89 27.4944519 19.575 27.4944519 19.2483333 27.253008 19.2133333 26.9885695 19.2133333L26.9195856 19.2133333 26.9195856 19.9366667z" mask="url(#discover-e)"/>
    <path fill="#000" fill-rule="nonzero" d="M26.6781417,18.98 L26.6781417,21.0333333 L26.9425802,21.0333333 C26.9425802,21.0333333 26.9425802,20.1933333 26.9425802,20.1466667 C26.9540775,20.1466667 26.9770722,20.1466667 26.9770722,20.1466667 C26.9770722,20.1583333 27.5634358,21.0216667 27.5634358,21.0216667 L27.850869,21.0333333 L27.8968583,21.0333333 C27.8968583,21.0333333 27.2875,20.17 27.2645053,20.1233333 C27.5519385,20.0883333 27.747393,19.8666667 27.747393,19.5516667 C27.747393,19.1666667 27.5059492,18.98 27.0000668,18.98 L26.7011364,18.98 L26.6781417,18.98 Z M26.9885695,19.015 C27.4714572,19.015 27.6899064,19.19 27.6899064,19.5516667 C27.6899064,19.855 27.5059492,20.065 27.2070187,20.0883333 L27.1725267,20.0883333 C27.1725267,20.0883333 27.7588904,20.9283333 27.8048797,20.9866667 C27.747393,20.9866667 27.5749332,20.9866667 27.5749332,20.9866667 C27.5749332,20.975 26.9885695,20.1116667 26.9885695,20.1116667 L26.9195856,20.1 L26.8965909,20.1 C26.8965909,20.1 26.8965909,20.94 26.8965909,20.9866667 C26.8620989,20.9866667 26.7471257,20.9866667 26.7126337,20.9866667 C26.7126337,20.9516667 26.7126337,19.05 26.7126337,19.015 C26.758623,19.015 26.9885695,19.015 26.9885695,19.015 Z" mask="url(#discover-e)"/>
    <path fill="#000" fill-rule="nonzero" d="M26.8965909,19.19 L26.8965909,19.96 L26.9885695,19.96 C27.2300134,19.96 27.5174465,19.9133333 27.5174465,19.575 C27.5174465,19.225 27.2415107,19.19 26.9885695,19.19 L26.9195856,19.19 L26.8965909,19.19 Z M26.9885695,19.225 C27.2415107,19.225 27.4714572,19.2483333 27.4714572,19.5633333 C27.4714572,19.8666667 27.2300134,19.9016667 26.9885695,19.9016667 C26.9885695,19.9016667 26.9655749,19.9016667 26.9425802,19.9016667 C26.9425802,19.8666667 26.9425802,19.26 26.9425802,19.225 C26.9655749,19.225 26.9885695,19.225 26.9885695,19.225 Z" mask="url(#discover-e)"/>
    <polygon fill="#000" fill-rule="nonzero" points="29.851 19.003 30.15 19.003 29.219 19.948 30.185 21.022 29.874 21.022 29.058 20.1 29.001 20.158 29.001 21.033 28.782 21.033 28.782 19.015 29.001 19.015 29.001 19.878" mask="url(#discover-e)"/>
    <path fill="#000" fill-rule="nonzero" d="M30.1503342,18.98 L29.8399064,18.98 C29.8399064,18.98 29.0810829,19.75 29.0235963,19.82 C29.0235963,19.7266667 29.0235963,18.98 29.0235963,18.98 L28.7591578,18.98 L28.7591578,21.0333333 L29.0235963,21.0333333 C29.0235963,21.0333333 29.0235963,20.1466667 29.0235963,20.1466667 C29.0235963,20.1466667 29.0465909,20.135 29.0580882,20.1233333 C29.0810829,20.1583333 29.8629011,21.0333333 29.8629011,21.0333333 L30.1848262,21.045 L30.2308155,21.045 C30.2308155,21.045 29.2765374,19.9716667 29.2420455,19.9483333 C29.2765374,19.925 30.1963235,18.9916667 30.1963235,18.9916667 L30.1503342,18.9916667 L30.1503342,18.98 Z M30.1043449,19.015 C30.035361,19.085 29.1960561,19.9366667 29.1960561,19.9366667 C29.1960561,19.9366667 30.0813503,20.9283333 30.1388369,20.9983333 C30.0698529,20.9983333 29.8743984,20.9983333 29.8743984,20.9983333 C29.8743984,20.9866667 29.0695856,20.0766667 29.0695856,20.0766667 L29.0580882,20.065 L28.9891043,20.135 C28.9891043,20.135 28.977607,20.9633333 28.977607,20.9983333 C28.943115,20.9983333 28.8281417,20.9983333 28.7936497,20.9983333 C28.7936497,20.9633333 28.7936497,19.0616667 28.7936497,19.0266667 C28.8281417,19.0266667 28.943115,19.0266667 28.977607,19.0266667 C28.977607,19.0616667 28.977607,19.925 28.977607,19.925 C28.977607,19.925 29.8399064,19.0383333 29.8514037,19.0266667 C29.8743984,19.015 30.035361,19.015 30.1043449,19.015 Z" mask="url(#discover-e)"/>
  </g>
</svg>
