<svg xmlns="http://www.w3.org/2000/svg" width="44" height="32" viewBox="0 0 44 32">
  <g fill="none" fill-rule="evenodd">
    <path stroke="#B9B9B0" d="M0.5,2.99610022 L0.5,29.0038998 C0.5,30.3865402 1.61934608,31.5 3.0069809,31.5 L40.9930191,31.5 C42.3813966,31.5 43.5,30.3840564 43.5,29.0038998 L43.5,2.99610022 C43.5,1.61345979 42.3806539,0.5 40.9930191,0.5 L3.0069809,0.5 C1.61860343,0.5 0.5,1.61594361 0.5,2.99610022 Z" opacity=".63"/>
    <g fill-rule="nonzero" transform="translate(5 10)">
      <path fill="#5F6368" d="M16.0798165,6.28057803 L16.0798165,10.0941618 L14.8243119,10.0941618 L14.8243119,0.676300578 L18.1541284,0.676300578 C18.9569288,0.66014112 19.7331691,0.95365971 20.3103211,1.4916185 C20.894266,1.99776057 21.2226578,2.72243134 21.2110092,3.47919075 C21.2277343,4.24017696 20.8987574,4.9702559 20.3103211,5.47803468 C19.7280321,6.01306358 19.0093532,6.2803526 18.1541284,6.27982659 L16.0798165,6.27982659 L16.0798165,6.28057803 Z M16.0798165,1.83578035 L16.0798165,5.1233526 L18.1853211,5.1233526 C18.6520561,5.13668401 19.1030223,4.95991423 19.4275688,4.63641618 C19.7501462,4.33420889 19.9321408,3.91911185 19.9321408,3.48557803 C19.9321408,3.05204422 19.7501462,2.63694718 19.4275688,2.33473988 C19.1069585,2.00428933 18.6545928,1.82231908 18.1853211,1.8350289 L16.0798165,1.8350289 L16.0798165,1.83578035 Z M24.1041284,3.44011561 C25.0321101,3.44011561 25.7645917,3.67907514 26.3016514,4.15699422 C26.838711,4.63491329 27.1069679,5.29017341 27.106422,6.12277457 L27.106422,10.0941618 L25.9055046,10.0941618 L25.9055046,9.1999422 L25.8509174,9.1999422 C25.3310138,9.93635838 24.6396284,10.3045665 23.7766055,10.3045665 C23.0399128,10.3045665 22.4236239,10.0941618 21.9276606,9.6733526 C21.4456292,9.2822039 21.17232,8.70246812 21.1837156,8.09531792 C21.1837156,7.42856069 21.4451881,6.8982659 21.968211,6.50450867 C22.4912339,6.11075145 23.1894037,5.91334682 24.0627982,5.91236994 C24.8083028,5.91236994 25.4222523,6.04387283 25.9047248,6.30687861 L25.9047248,6.03034682 C25.9076037,5.61646018 25.717185,5.22326556 25.3861468,4.95953757 C25.054137,4.67089101 24.6214474,4.51339541 24.1743119,4.51843931 C23.4730229,4.51843931 22.9180275,4.80346243 22.5094037,5.37358382 L21.4036239,4.70254335 C22.0118807,3.86092486 22.9120229,3.44011561 24.1041284,3.44011561 Z M22.4797706,8.1216185 C22.4780627,8.43402529 22.6331908,8.72795497 22.8961927,8.91063584 C23.1738681,9.12111182 23.5185173,9.23261162 23.8717431,9.22624277 C24.4015468,9.22538962 24.9093928,9.02218372 25.2839908,8.66115607 C25.699867,8.28393064 25.907844,7.84132948 25.907844,7.3333526 C25.5163761,7.03277457 24.9705046,6.88248555 24.2702294,6.88248555 C23.7602294,6.88248555 23.3349954,7.00098844 22.9944495,7.23791908 C22.6505505,7.4783815 22.4797706,7.77069364 22.4797706,8.1216185 Z M34,3.65052023 L29.8077064,12.9346243 L28.5116514,12.9346243 L30.0673853,9.68612717 L27.3107339,3.65052023 L28.6754128,3.65052023 L30.667844,8.27942197 L30.6951376,8.27942197 L32.6329817,3.65052023 L34,3.65052023 Z"/>
      <path fill="#4285F4" d="M11.0063303,5.45849711 C11.0068037,5.08980206 10.9744527,4.72174747 10.909633,4.3583815 L5.6146789,4.3583815 L5.6146789,6.44213873 L8.64738532,6.44213873 C8.52198387,7.11464607 8.11689417,7.70858865 7.52600917,8.08630058 L7.52600917,9.43890173 L9.3359633,9.43890173 C10.3957339,8.49734104 11.0063303,7.10491329 11.0063303,5.45849711 Z"/>
      <path fill="#34A853" d="M5.6146789,10.7456647 C7.12986239,10.7456647 8.4056422,10.2662428 9.3359633,9.43965318 L7.52600917,8.08705202 C7.02224771,8.41618497 6.37344037,8.60404624 5.6146789,8.60404624 C4.15018349,8.60404624 2.90715596,7.65271676 2.46266055,6.37075145 L0.598119266,6.37075145 L0.598119266,7.76468208 C1.55117505,9.59216423 3.49219153,10.7455715 5.6146789,10.7456647 Z"/>
      <path fill="#FBBC04" d="M2.46266055,6.37075145 C2.22767177,5.6989929 2.22767177,4.97152733 2.46266055,4.29976879 L2.46266055,2.90583815 L0.598119266,2.90583815 C-0.1990319,4.43437357 -0.1990319,6.23614666 0.598119266,7.76468208 L2.46266055,6.37075145 Z"/>
      <path fill="#EA4335" d="M5.6146789,2.21676301 C6.41538476,2.20415752 7.18907918,2.49568156 7.76853211,3.0283237 L9.37105505,1.48410405 C8.35488865,0.564392229 7.00869385,0.0594550413 5.6146789,0.0751445087 C3.49219153,0.0752377237 1.55117505,1.22864502 0.598119266,3.05612717 L2.46266055,4.4500578 C2.90715596,3.16809249 4.15018349,2.21676301 5.6146789,2.21676301 Z"/>
    </g>
  </g>
</svg>
