<svg xmlns="http://www.w3.org/2000/svg" width="44" height="32" viewBox="0 0 44 32">
  <g fill="none" fill-rule="evenodd">
    <path stroke="#B9B9B0" d="M41,31.5 C42.3808576,31.5 43.5,30.3808576 43.5,29 L43.5,3 C43.5,1.61914237 42.3808576,0.5 41,0.5 L3,0.5 C1.61914237,0.5 0.5,1.61914237 0.5,3 L0.5,29 C0.5,30.3808576 1.61914237,31.5 3,31.5 L41,31.5 Z" opacity=".63"/>
    <path fill="#B4141D" d="M29.6814157,17.333186 C29.2233521,17.7816179 27.9375315,17.908996 28.0690833,16.8370775 C28.1783219,15.9467952 29.1475834,15.7576142 30.1981519,15.8861963 C30.1200555,16.3731547 30.0304815,16.9915044 29.6814157,17.333186 Z M28.234426,13.8604268 C28.1906824,14.106033 28.1235019,14.3282825 28.0690833,14.5632136 C28.593605,14.4317421 30.2268862,14.0284985 30.3842828,14.7285564 C30.4365343,14.9611599 30.3463985,15.2082911 30.2809035,15.3900878 C28.8038953,15.2501886 27.6001039,15.495554 27.2835448,16.5476475 C27.0714887,17.2523606 27.3073028,17.945837 27.7590255,18.1394324 C28.6290012,18.5120957 29.6871947,18.0851743 30.0535171,17.4986089 C30.0154722,17.7016755 29.9794339,17.9067486 29.9914734,18.1600601 L30.756304,18.1600601 C30.7644106,17.4275758 30.8710005,16.8346696 30.9836904,16.1755461 C31.0797657,15.6142637 31.2604388,15.0585997 31.2317044,14.5632136 C31.1660489,13.4286896 29.2865195,13.8300069 28.234426,13.8604268 Z M35.9034392,17.6845794 C35.3050751,17.6974215 35.0075385,17.3270859 34.9938937,16.7130705 C34.9700554,15.6377006 35.4417638,14.442979 36.3995477,14.3358273 C36.8454915,14.2859836 37.1683914,14.389684 37.4951439,14.5012502 C37.1951994,15.7091351 37.3034748,17.6545609 35.9034392,17.6845794 Z M37.887873,12 C37.811703,12.6679525 37.7098487,13.310301 37.5778955,13.9223902 C35.3975386,13.2322849 34.0603494,14.8364305 34.0843481,16.8163695 C34.0890837,17.1993065 34.15498,17.5790329 34.3944861,17.8499221 C34.8072009,18.3167344 35.9890001,18.4283809 36.5855984,18.0360531 C36.7011778,17.9601239 36.819165,17.8219102 36.8957364,17.7259953 C36.953205,17.6537582 37.0445448,17.464818 37.0609989,17.5191564 C37.0296961,17.7290453 36.9828222,17.9233632 36.9784078,18.1600601 L37.784574,18.1600601 C37.9398838,15.9313043 38.4203408,14.0276156 38.7767909,12 L37.887873,12 Z M15.1288475,17.3538939 C14.6532865,17.8575471 13.4841689,17.8498419 13.392508,17.0024202 C13.3525368,16.6336899 13.4899479,16.2470608 13.5578508,15.8655686 C13.6265563,15.4794211 13.6759986,15.1089249 13.7438212,14.7698921 C14.2122388,14.1979346 15.5886769,14.128908 15.7283353,15.0800301 C15.8495331,15.9057806 15.5227003,16.9367647 15.1288475,17.3538939 Z M15.8317146,13.8604268 C15.0794052,13.5778191 14.1624754,13.9151665 13.7650108,14.2360598 C13.7663753,14.2501861 13.7555397,14.2521125 13.7438212,14.2531559 C13.7506436,14.2474572 13.7579476,14.2417585 13.7650108,14.2360598 C13.7649305,14.2348558 13.7648502,14.2338124 13.7645292,14.2325282 C13.7712713,14.094475 13.8198307,13.9983997 13.8265728,13.8604268 L13.0617423,13.8604268 C12.7430161,15.9809072 12.3650555,18.0420728 11.9661461,20.0824503 L12.8549836,20.0824503 C12.983646,19.2877618 13.068645,18.4494902 13.247793,17.7052874 C13.4507793,18.4880166 14.7762501,18.3384055 15.3355259,18.0360531 C16.4896342,17.4120047 17.379756,14.4419355 15.8317146,13.8604268 Z M20.0485964,15.3487521 L17.9608635,15.3487521 C18.0269203,14.8687766 18.4587377,14.3412049 19.1390508,14.3151995 C19.7793927,14.2907192 20.2378576,14.5502912 20.0485964,15.3487521 Z M19.2010945,13.7777554 C18.5588263,13.8271977 18.0159242,14.0120444 17.6300978,14.4184986 C17.1568644,14.9170952 16.7736064,16.0193534 16.8858949,17.0231282 C17.0461008,18.4551889 18.8291536,18.4038203 20.2553551,18.0566808 C20.2795946,17.8053759 20.3404343,17.5905106 20.3793621,17.3538939 C19.7918336,17.5737355 18.7717652,17.8805828 18.1675419,17.4986089 C17.7113244,17.2101421 17.7086757,16.4796643 17.8574841,15.8448606 C18.8159904,15.8143605 19.8122205,15.8202197 20.7720912,15.8448606 C20.8330112,15.3949036 21.0072632,14.9043334 20.8547626,14.4599146 C20.6536223,13.8731887 19.9337394,13.7213302 19.2010945,13.7777554 Z M11.3873663,13.8604268 C11.3632872,13.8638781 11.3648925,13.893094 11.3666583,13.9223902 C11.1708154,15.3871181 10.9057855,16.7827391 10.6225357,18.1600601 L11.5113733,18.1600601 C11.7249544,16.6854598 11.9695974,15.2420017 12.2762038,13.8604268 L11.3873663,13.8604268 Z M34.5805368,13.8810545 C33.7949181,13.4883254 33.1409314,14.1473686 32.8855331,14.5425057 C32.9582518,14.3397602 32.9624255,14.0683091 33.0301678,13.8604268 L32.2446293,13.8604268 C32.0328943,15.3367929 31.777496,16.7695759 31.4797988,18.1600601 L32.3893444,18.1600601 C32.3951233,17.5901896 32.5070106,17.1686459 32.5960228,16.6096911 C32.7861669,15.4164142 33.0651627,14.1077185 34.4565298,14.5012502 C34.5026813,14.2993876 34.5218643,14.0704762 34.5805368,13.8810545 Z M24.5962438,17.1471353 C24.5143751,16.9354805 24.4931053,16.5859331 24.5135725,16.3202611 C24.5595634,15.7229404 24.7771577,14.9957534 25.1130603,14.666593 C25.5765817,14.2122215 26.4916655,14.2874284 27.2215011,14.5425057 C27.2441354,14.2964982 27.2935777,14.0771381 27.3248805,13.8397991 C26.1278312,13.6442773 24.9918624,13.7658764 24.3895654,14.3978709 C23.8000303,15.0165417 23.4134815,16.4384892 23.6866983,17.333186 C24.0065482,18.3801425 25.4403747,18.4370493 26.6014659,18.0360531 C26.6527542,17.8256023 26.6799636,17.5909922 26.7254729,17.3745216 C26.0910705,17.7041637 24.8782094,17.8754459 24.5962438,17.1471353 Z M24.1002156,13.8604268 C23.3120285,13.5421019 22.6924748,14.0800276 22.4052119,14.5839216 C22.4703055,14.3597458 22.4971938,14.097204 22.5498466,13.8604268 L21.7643081,13.8604268 C21.5723179,15.3497153 21.2892287,16.7479048 21.0201856,18.1600601 L21.9091034,18.1600601 C22.0336723,17.3217885 22.0874488,16.1919198 22.3637959,15.3900878 C22.584681,14.7493446 23.1627384,14.2034728 23.9968363,14.5012502 C24.0085548,14.2648744 24.0762169,14.0844421 24.1002156,13.8604268 Z M9.77503384,12.124007 C9.64805705,12.9479115 9.50502756,13.7557632 9.36159675,14.5632136 C8.44073406,14.5729255 7.50052788,14.608723 6.61233241,14.5425057 C6.78008305,13.7526329 6.90039798,12.915164 7.06702492,12.124007 L6.07488827,12.124007 C5.71964219,14.1391818 5.39658176,16.1863816 5,18.1600601 L6.01284462,18.1600601 C6.17176627,17.1475366 6.32033394,16.1247393 6.52958078,15.1627014 C7.39321563,15.1414316 8.42829323,15.1043499 9.25821742,15.1834094 C9.08709572,16.1836527 8.88033704,17.1481787 8.72077328,18.1600601 L9.73369816,18.1600601 C10.0590862,16.1151879 10.402052,14.0878132 10.8085864,12.124007 L9.77503384,12.124007 Z M12.2969118,13.0335526 C12.4741335,12.9115521 12.7023225,12.3554869 12.4416268,12.124007 C12.3590357,12.0507265 12.220822,12.0294567 12.0281897,12.0620437 C11.849443,12.0922227 11.7466255,12.1529019 11.6767963,12.2480141 C11.5644275,12.4009963 11.4615297,12.8621901 11.6353804,13.0335526 C11.8047363,13.2004203 12.1841416,13.1111674 12.2969118,13.0335526 Z"/>
  </g>
</svg>
