<svg xmlns="http://www.w3.org/2000/svg" width="44" height="32" viewBox="0 0 44 32">
  <g fill="none" fill-rule="evenodd">
    <path stroke="#B9B9B0" d="M41,31.5 C42.3807119,31.5 43.5,30.3807119 43.5,29 L43.5,3 C43.5,1.61928813 42.3807119,0.5 41,0.5 L3,0.5 C1.61928813,0.5 0.5,1.61928813 0.5,3 L0.5,29 C0.5,30.3807119 1.61928813,31.5 3,31.5 L41,31.5 Z" opacity=".63"/>
    <circle cx="17" cy="16" r="8" fill="#EE0006" fill-rule="nonzero"/>
    <circle cx="27" cy="16" r="8" fill="#F99F00" fill-rule="nonzero"/>
    <path fill="#FF5E00" fill-rule="nonzero" d="M22,9.75462905 C23.828925,11.2207501 25,13.4736154 25,16 C25,18.5263846 23.828925,20.7792499 22,22.245371 C20.171075,20.7792499 19,18.5263846 19,16 C19,13.4736154 20.171075,11.2207501 22,9.75462905 Z"/>
  </g>
</svg>
