<svg xmlns="http://www.w3.org/2000/svg" width="44" height="32" viewBox="0 0 44 32">
  <g fill="none" fill-rule="evenodd">
    <path stroke="#B9B9B0" d="M41,31.5 C42.3808576,31.5 43.5,30.3808576 43.5,29 L43.5,3 C43.5,1.61914237 42.3808576,0.5 41,0.5 L3,0.5 C1.61914237,0.5 0.5,1.61914237 0.5,3 L0.5,29 C0.5,30.3808576 1.61914237,31.5 3,31.5 L41,31.5 Z" opacity=".63"/>
    <polygon fill="#0D4496" fill-rule="nonzero" points="17 21 19.46 21 21 11 18.539 11"/>
    <path fill="#0D4496" fill-rule="nonzero" d="M26.3724939 15.0586748C25.4408122 14.610521 24.8697484 14.3110774 24.8758779 13.8578655 24.8758779 13.4552352 25.3590857 13.0242792 26.4031414 13.0242792 27.257183 13.011128 27.9457285 13.1831057 28.6383604 13.5068285L29 11.4066768C28.4718427 11.2104198 27.6443622 11 26.6105223 11 23.9758652 11 22.1196527 12.3141123 22.1043289 14.1967628 22.0890052 15.5887709 23.4293194 16.3657056 24.4406845 16.8290339 25.4786106 17.3034901 25.8279913 17.6069803 25.8228834 18.0308548 25.8167539 18.6803237 24.9943813 18.9767324 24.2271741 18.9767324 23.0441834 18.9767324 22.4475801 18.79565 21.3738986 18.3141123L21 20.4830551C21.6231643 20.7531614 22.774486 20.9878604 23.9707572 21 26.7739752 21 28.5934108 19.7010622 28.6138424 17.6899342 28.6209935 16.588265 27.9109948 15.7496206 26.3724939 15.0586748zM35.9703435 11L34.0338169 11C33.4337529 11 32.9853851 11.1786834 32.7213569 11.8296761L29 21 31.6316407 21C31.6316407 21 32.0617666 19.7669801 32.159697 19.4963427 32.4477278 19.4963427 35.0035204 19.5005225 35.3693194 19.5005225 35.4442074 19.8505747 35.674632 21 35.674632 21L38 21 35.9703435 11zM32.8807339 17.4503657C32.984425 17.1619645 34.0069341 14.3040752 34.2114359 13.6980146 34.550352 15.4231975 34.2200768 13.7492163 34.9612759 17.4503657L32.8807339 17.4503657zM15.2197084 11.0062722L12.6495726 17.8325319 12.3760684 16.4453272 11.456008 11.8446582C11.2971342 11.2111645 10.8366013 11.0219527 10.2664656 11L6.0331825 11 6 11.2080284C7.02966315 11.4672799 7.94972348 11.8415221 8.7571644 12.3056659L11.0910005 21 13.8682755 20.9968639 18 11.0052268 15.2197084 11.0052268 15.2197084 11.0062722z"/>
  </g>
</svg>
