<svg width="143" height="33" viewBox="0 0 143 33" fill="none" xmlns="http://www.w3.org/2000/svg">
<path fill-rule="evenodd" clip-rule="evenodd" d="M142.326 24.5884C142.326 26.3442 140.343 28.0999 138.333 28.0999H4.15942C2.17712 28.0999 0.194824 26.3442 0.194824 24.5884V8.73001C0.194824 6.97426 2.17712 5.21851 4.13111 5.21851H138.361C140.343 5.21851 142.297 6.97426 142.297 8.73001V24.5884H142.326Z" fill="#010101"/>
<path fill-rule="evenodd" clip-rule="evenodd" d="M25.313 25.2963C28.3714 21.3884 31.6281 14.7335 29.8723 5.36007V5.33175H29.844C29.7874 5.30343 25.5396 2.83971 18.1484 1.67865C10.7856 2.81139 6.50949 5.30343 6.48117 5.33175H6.45285V5.36007C4.72542 14.7335 8.01037 21.3601 11.0688 25.2963C14.3821 29.5441 18.1484 31.6114 18.1767 31.6114H18.2051H18.2334C18.2334 31.5831 22.0281 29.5441 25.313 25.2963Z" fill="#00CB00"/>
<path fill-rule="evenodd" clip-rule="evenodd" d="M5.85833 4.65211C5.17868 8.27688 5.207 11.5335 5.6601 14.422C5.71674 14.7335 5.68842 14.5919 5.68842 14.5919H18.2052V0.744141C10.3043 1.99016 5.85833 4.65211 5.85833 4.65211Z" fill="url(#paint0_radial)"/>
<path fill-rule="evenodd" clip-rule="evenodd" d="M30.5237 4.65211C31.2033 8.36184 31.175 11.6468 30.6652 14.5919H18.1484V0.744141C26.0776 1.99016 30.5237 4.65211 30.5237 4.65211Z" fill="url(#paint1_radial)"/>
<path fill-rule="evenodd" clip-rule="evenodd" d="M18.2053 32.5459V14.5919H5.68848C7.61414 26.7123 18.2053 32.5459 18.2053 32.5459Z" fill="url(#paint2_radial)"/>
<path fill-rule="evenodd" clip-rule="evenodd" d="M29.844 18.0751C29.844 18.0751 30.552 15.5264 30.6936 14.5919H18.2051V32.5459C18.2051 32.5459 26.6157 27.9583 29.844 18.0751Z" fill="url(#paint3_radial)"/>
<path fill-rule="evenodd" clip-rule="evenodd" d="M36.3291 20.3972C36.8671 20.6804 37.7733 20.8786 38.5379 20.8786C39.7839 20.8786 40.3786 20.2839 40.3786 19.491C40.3786 18.5848 39.7839 18.16 38.6512 17.4804C36.8105 16.4609 36.1025 15.13 36.1025 14.0255C36.1025 12.0432 37.5468 10.3724 40.3503 10.3724C41.2282 10.3724 42.0777 10.599 42.4742 10.8255L42.0494 12.8928C41.6813 12.6662 41.0866 12.468 40.322 12.468C39.2176 12.468 38.6512 13.091 38.6512 13.7707C38.6512 14.507 39.0477 14.9034 40.5202 15.6963C42.3043 16.6875 42.9556 17.9335 42.9556 19.2362C42.9556 21.5016 41.1432 23.0025 38.5096 23.0025C37.4335 23.0025 36.3857 22.7477 35.9326 22.4928L36.3291 20.3972Z" fill="white"/>
<path fill-rule="evenodd" clip-rule="evenodd" d="M47.1185 10.4574V22.8609H44.5132V10.4574H47.1185Z" fill="white"/>
<path fill-rule="evenodd" clip-rule="evenodd" d="M50.9129 12.6662H48.5342V10.4291H55.9253V12.6662H53.5182V22.8326H50.9129V12.6662Z" fill="white"/>
<path fill-rule="evenodd" clip-rule="evenodd" d="M62.9767 17.3954H59.89V20.737H63.3732V22.8326H57.2847V10.4574H63.1466V12.553H59.9183V15.4131H63.005V17.3954H62.9767Z" fill="white"/>
<path fill-rule="evenodd" clip-rule="evenodd" d="M68.3291 10.6273C69.122 10.4574 70.1698 10.4008 71.3026 10.4008C72.5486 10.4008 73.7663 10.5423 74.7291 11.2786C75.4371 11.8167 75.7486 12.6662 75.7486 13.5158C75.7486 14.6202 75.1256 15.6963 73.7946 16.2344V16.291C75.3521 16.6875 76.2017 17.9052 76.2017 19.2645C76.2017 20.2839 75.8335 21.0769 75.2105 21.6999C74.4176 22.5211 73.0583 22.9459 70.7928 22.9459C69.8017 22.9459 68.9521 22.8893 68.3574 22.8043V10.6273H68.3291ZM70.9627 15.5547H71.5291C72.4636 15.5547 73.1999 14.8185 73.1999 13.799C73.1999 12.8928 72.7468 12.1848 71.6707 12.1848C71.3875 12.1848 71.161 12.2131 70.991 12.2698V15.5547H70.9627ZM70.9627 21.0485C71.1326 21.0769 71.3026 21.0769 71.5291 21.0769C72.5769 21.0769 73.4548 20.4822 73.4548 19.2078C73.4548 17.9618 72.5486 17.3388 71.5008 17.3105H70.9344V21.0485H70.9627Z" fill="white"/>
<path fill-rule="evenodd" clip-rule="evenodd" d="M77.9858 10.4574H80.5912V20.822H84.0461V22.8609H77.9858V10.4574Z" fill="white"/>
<path fill-rule="evenodd" clip-rule="evenodd" d="M88.1805 10.4574V22.8609H85.5752V10.4574H88.1805Z" fill="white"/>
<path fill-rule="evenodd" clip-rule="evenodd" d="M90.5308 22.8609V10.4574H92.9378L95.0051 15.3282C95.4016 16.291 96.0529 17.8769 96.4494 18.953H96.4777C96.3927 17.6503 96.2228 15.4981 96.2228 13.2043V10.4574H98.5166V22.8609H96.1095L94.0423 18.1601C93.5892 17.1123 92.9945 15.5547 92.683 14.422H92.6547C92.7113 15.668 92.8246 17.5937 92.8246 20.0857V22.8893H90.5308V22.8609Z" fill="white"/>
<path fill-rule="evenodd" clip-rule="evenodd" d="M100.811 10.6273C101.462 10.4857 102.425 10.4008 103.472 10.4008C105.172 10.4008 106.361 10.7689 107.211 11.5052C108.372 12.468 108.966 14.1105 108.966 16.5176C108.966 19.0096 108.258 20.7937 107.097 21.7565C106.191 22.5777 104.86 22.9459 102.991 22.9459C102.17 22.9459 101.349 22.8609 100.839 22.8043V10.6273H100.811ZM103.444 20.9353C103.557 20.9636 103.756 20.9636 103.897 20.9636C105.143 20.9636 106.248 19.8308 106.248 16.4043C106.248 13.8556 105.54 12.3264 103.954 12.3264C103.784 12.3264 103.586 12.3264 103.444 12.3831V20.9353Z" fill="white"/>
<path fill-rule="evenodd" clip-rule="evenodd" d="M112.45 20.0291L111.855 22.8609H109.306L112.223 10.4574H115.366L117.972 22.8609H115.423L114.857 20.0291H112.45ZM114.63 18.1317L114.177 15.5264C114.035 14.7618 113.865 13.5441 113.724 12.7229H113.667C113.526 13.5441 113.327 14.8468 113.186 15.5547L112.676 18.1317H114.63Z" fill="white"/>
<path fill-rule="evenodd" clip-rule="evenodd" d="M119.444 10.6273C120.096 10.4857 121.058 10.4008 122.106 10.4008C123.805 10.4008 124.995 10.7689 125.844 11.5052C127.005 12.468 127.6 14.1105 127.6 16.5176C127.6 19.0096 126.892 20.7937 125.731 21.7565C124.825 22.5777 123.494 22.9459 121.625 22.9459C120.804 22.9459 119.982 22.8609 119.473 22.8043V10.6273H119.444ZM122.078 20.9353C122.191 20.9636 122.389 20.9636 122.531 20.9636C123.777 20.9636 124.881 19.8308 124.881 16.4043C124.881 13.8556 124.174 12.3264 122.588 12.3264C122.418 12.3264 122.22 12.3264 122.078 12.3831V20.9353Z" fill="white"/>
<path fill-rule="evenodd" clip-rule="evenodd" d="M137.2 16.4326C137.2 21.1052 135.416 23.0025 132.839 23.0025C129.78 23.0025 128.591 20.0291 128.591 16.6025C128.591 13.2043 130.035 10.2875 133.037 10.2875C136.293 10.3158 137.2 13.6007 137.2 16.4326ZM131.309 16.6592C131.309 19.4627 131.876 20.9069 132.952 20.9069C134.056 20.9069 134.481 19.0662 134.481 16.5459C134.481 14.3654 134.113 12.4114 132.952 12.4114C131.904 12.4114 131.309 13.9972 131.309 16.6592Z" fill="white"/>
<defs>
<radialGradient id="paint0_radial" cx="0" cy="0" r="1" gradientUnits="userSpaceOnUse" gradientTransform="translate(18.2026 14.7204) scale(14.6181 15.7613)">
<stop stop-color="#00F600"/>
<stop offset="0.773" stop-color="#00CB00"/>
<stop offset="1" stop-color="#00CB00"/>
</radialGradient>
<radialGradient id="paint1_radial" cx="0" cy="0" r="1" gradientUnits="userSpaceOnUse" gradientTransform="translate(18.176 14.4707) scale(12.8599 13.8122)">
<stop stop-color="#00CB00"/>
<stop offset="0.908" stop-color="#009800"/>
<stop offset="1" stop-color="#009800"/>
</radialGradient>
<radialGradient id="paint2_radial" cx="0" cy="0" r="1" gradientUnits="userSpaceOnUse" gradientTransform="translate(18.2696 14.515) scale(12.6226 18.1057)">
<stop stop-color="#00CB00"/>
<stop offset="0.908" stop-color="#009800"/>
<stop offset="1" stop-color="#009800"/>
</radialGradient>
<radialGradient id="paint3_radial" cx="0" cy="0" r="1" gradientUnits="userSpaceOnUse" gradientTransform="translate(18.1415 14.515) scale(12.6457 18.1799)">
<stop stop-color="#00F600"/>
<stop offset="0.773" stop-color="#00CB00"/>
<stop offset="1" stop-color="#00CB00"/>
</radialGradient>
</defs>
</svg>
