<svg xmlns="http://www.w3.org/2000/svg" width="44" height="32" viewBox="0 0 44 32">
  <g fill="none" fill-rule="evenodd">
    <path stroke="#B9B9B0" d="M41,31.5 C42.3808576,31.5 43.5,30.3808576 43.5,29 L43.5,3 C43.5,1.61914237 42.3808576,0.5 41,0.5 L3,0.5 C1.61914237,0.5 0.5,1.61914237 0.5,3 L0.5,29 C0.5,30.3808576 1.61914237,31.5 3,31.5 L41,31.5 Z" opacity=".63"/>
    <path fill="#20201E" d="M16.1787463,14.9802677 L10.4622747,17.4436104 C10.4534103,17.3451408 10.4484975,17.2454963 10.4484975,17.1446771 C10.4484975,15.3364458 11.9143279,13.8706154 13.7225592,13.8706154 C14.7008475,13.8706154 15.5788506,14.2999515 16.1787463,14.9802677 Z M13.7225592,11.4221179 C16.4200076,11.4221179 18.681071,13.2885552 19.2858796,15.8004919 L16.9794262,16.8090046 L16.9788922,16.8041986 L14.6192523,17.8409065 L8.95874387,20.3158904 C8.3531877,19.4080902 8,18.3176619 8,17.1446771 C8,13.9841438 10.5620259,11.4221179 13.7225592,11.4221179 Z M17.7212592,21.2382155 C15.6723006,23.1829372 12.9617158,23.3737889 10.5799683,21.9278233 L11.9256487,19.8818551 C13.2809411,20.6919333 14.6424279,20.5605693 16.0102159,19.486695 L17.7212592,21.2382155 Z M20.0513154,19.8217267 L20.0368974,9 L22.0871376,9 L22.0871376,19.5295218 C22.0871376,19.6305546 22.0996332,19.7195191 22.2321721,19.7709967 L24.0157326,20.4646629 L23.2121691,22.5539919 L21.1228401,21.670008 C20.3305975,21.3347627 20.0527038,20.8490362 20.0513154,19.8217267 Z M27.771142,19.6397394 L26.5205137,21.8111977 C25.0081184,20.7736354 24.0157326,19.0333289 24.0157326,17.0607323 C24.0157326,15.230607 24.87056,13.6011589 26.2017156,12.5465086 L27.5259292,14.6926552 C26.8992266,15.287745 26.5078045,16.1282612 26.5078045,17.0607323 C26.5078045,18.1096154 27.002609,19.0421933 27.771142,19.6397394 Z M28.6687963,13.9869206 L27.6094468,11.7250028 C28.2778014,11.4536239 29.0079932,11.3028223 29.7737494,11.3028223 C32.483907,11.3028223 34.7552232,13.1756676 35.3677214,15.6974299 L32.8302595,15.909428 C32.3645045,14.6739652 31.1720822,13.7947874 29.7737494,13.7947874 C29.3858517,13.7947874 29.0138672,13.862819 28.6687963,13.9869206 Z M33.0356359,17.2190099 L35.5255718,17.2974012 C35.4012566,20.3674748 32.8743679,22.8186423 29.7737494,22.8186423 C29.1483284,22.8186423 28.5468307,22.7175027 27.9830333,22.5332727 L28.9784096,20.2286348 C29.2330209,20.2922876 29.4992733,20.3266772 29.7737494,20.3266772 C31.5243087,20.3266772 32.9529727,18.9491704 33.0356359,17.2190099 Z"/>
  </g>
</svg>
